<svg width="128" height="128" viewBox="0 0 128 128" xmlns="http://www.w3.org/2000/svg">
  <defs>
    <linearGradient id="cherrySkin" x1="0" y1="0" x2="1" y2="1">
      <stop offset="0%" stop-color="#ff7b7b"/>
      <stop offset="60%" stop-color="#e01937"/>
      <stop offset="100%" stop-color="#9b0f2e"/>
    </linearGradient>
    <linearGradient id="stem" x1="0" y1="0" x2="0" y2="1">
      <stop offset="0%" stop-color="#4caf50"/>
      <stop offset="100%" stop-color="#2b7a2d"/>
    </linearGradient>
  </defs>
  <rect width="128" height="128" rx="18" fill="#0c0f18"/>
  <path d="M62 70 C60 45 70 30 86 26" fill="none" stroke="url(#stem)" stroke-width="7" stroke-linecap="round"/>
  <path d="M78 72 C78 50 88 36 104 30" fill="none" stroke="url(#stem)" stroke-width="7" stroke-linecap="round"/>
  <circle cx="54" cy="82" r="26" fill="url(#cherrySkin)" stroke="#5d0c23" stroke-width="4"/>
  <circle cx="82" cy="78" r="24" fill="url(#cherrySkin)" stroke="#5d0c23" stroke-width="4"/>
  <ellipse cx="46" cy="74" rx="8" ry="12" fill="#ffdde1" opacity="0.8"/>
  <ellipse cx="88" cy="70" rx="7" ry="11" fill="#ffdde1" opacity="0.7"/>
  <path d="M80 30 C78 20 86 14 94 14" fill="none" stroke="#2f8a35" stroke-width="6" stroke-linecap="round"/>
  <path d="M92 22 C96 18 104 20 108 30 C100 30 94 28 92 22 Z" fill="#2f8a35"/>
</svg>
